<svg width="200" height="115" viewBox="0 0 200 115" fill="none" xmlns="http://www.w3.org/2000/svg">
<path d="M4.04986 101.484V98.9605H1.78447V101.484C1.78447 101.826 1.60729 102.004 1.26558 102.004H0V103.804H1.26558C1.60729 103.804 1.78447 103.982 1.78447 104.324V114.746H4.04986V104.324C4.04986 103.982 4.22705 103.804 4.56875 103.804H6.54306V102.004H4.56875C4.22705 102.004 4.04986 101.826 4.04986 101.484Z" fill="#22543D"/>
<path d="M10.2512 103.018V96.1583H7.98583V114.746H10.2512V106.061C10.2512 104.628 11.1751 103.677 12.5419 103.677C13.9088 103.677 14.82 104.628 14.82 106.061V114.746H17.0854V105.757C17.0854 103.348 15.516 101.75 13.2633 101.75C11.9724 101.75 10.9346 102.219 10.2512 103.018Z" fill="#22543D"/>
<path d="M23.8436 115C26.5646 115 28.387 113.377 28.387 110.879V110.131H26.1722V110.562C26.1722 112.046 25.2357 112.984 23.8436 112.984C22.4261 112.984 21.4896 112.046 21.4896 110.562V109.535C21.4896 109.091 21.7427 108.838 22.173 108.838H28.387V106.086C28.387 103.31 26.5646 101.649 23.8436 101.649C21.0593 101.649 19.1736 103.31 19.1736 105.782V110.879C19.1736 113.377 21.0593 115 23.8436 115ZM21.4896 106.441V106.086C21.4896 104.641 22.4261 103.665 23.8436 103.665C25.2357 103.665 26.1722 104.641 26.1722 106.086V106.441C26.1722 106.885 25.9191 107.126 25.4762 107.126H22.173C21.7427 107.126 21.4896 106.885 21.4896 106.441Z" fill="#22543D"/>
<path d="M34.968 114.746H37.2334V102.004H34.968V114.746ZM34.6263 98.8844C34.6263 99.7212 35.3098 100.368 36.1324 100.368C36.9297 100.368 37.6005 99.7212 37.6005 98.8844C37.6005 98.0729 36.9297 97.4262 36.1324 97.4262C35.3098 97.4262 34.6263 98.0729 34.6263 98.8844Z" fill="#22543D"/>
<path d="M41.9667 103.195V102.004H39.7013V114.746H41.9667V106.061C41.9667 104.628 42.8906 103.677 44.2574 103.677C45.6242 103.677 46.5355 104.628 46.5355 106.061V114.746H48.8135V105.757C48.8135 103.348 47.2315 101.75 44.9788 101.75C43.6626 101.75 42.6122 102.282 41.9667 103.195Z" fill="#22543D"/>
<path d="M54.053 101.484V100.254C54.053 98.9478 54.8503 98.1617 56.2298 98.1617H59.7735V96.1583H56.2172C53.3823 96.1583 51.775 97.6418 51.775 100.203V101.484C51.775 101.826 51.5978 102.004 51.2561 102.004H50.1424V103.804H51.2561C51.5978 103.804 51.775 103.982 51.775 104.324V114.746H54.053V104.324C54.053 103.982 54.2302 103.804 54.5719 103.804H56.9512C57.3056 103.804 57.5081 103.994 57.5081 104.349V114.746H59.7735V102.004H54.5719C54.2302 102.004 54.053 101.826 54.053 101.484Z" fill="#22543D"/>
<path d="M64.4941 103.195V102.004H62.2287V114.746H64.4941V106.061C64.4941 104.628 65.418 103.677 66.7848 103.677C68.1516 103.677 69.0628 104.628 69.0628 106.061V114.746H71.3409V105.757C71.3409 103.348 69.7589 101.75 67.5062 101.75C66.19 101.75 65.1395 102.282 64.4941 103.195Z" fill="#22543D"/>
<path d="M73.7202 114.746H75.9856V102.004H73.7202V114.746ZM73.3785 98.8844C73.3785 99.7212 74.0619 100.368 74.8845 100.368C75.6818 100.368 76.3526 99.7212 76.3526 98.8844C76.3526 98.0729 75.6818 97.4262 74.8845 97.4262C74.0619 97.4262 73.3785 98.0729 73.3785 98.8844Z" fill="#22543D"/>
<path d="M81.5541 101.484V98.9605H79.2887V101.484C79.2887 101.826 79.1116 102.004 78.7699 102.004H77.5043V103.804H78.7699C79.1116 103.804 79.2887 103.982 79.2887 104.324V114.746H81.5541V104.324C81.5541 103.982 81.7313 103.804 82.073 103.804H84.0473V102.004H82.073C81.7313 102.004 81.5541 101.826 81.5541 101.484Z" fill="#22543D"/>
<path d="M89.5273 115C92.2483 115 94.0707 113.377 94.0707 110.879V110.131H91.856V110.562C91.856 112.046 90.9194 112.984 89.5273 112.984C88.1099 112.984 87.1733 112.046 87.1733 110.562V109.535C87.1733 109.091 87.4264 108.838 87.8567 108.838H94.0707V106.086C94.0707 103.31 92.2483 101.649 89.5273 101.649C86.743 101.649 84.8573 103.31 84.8573 105.782V110.879C84.8573 113.377 86.743 115 89.5273 115ZM87.1733 106.441V106.086C87.1733 104.641 88.1099 103.665 89.5273 103.665C90.9194 103.665 91.856 104.641 91.856 106.086V106.441C91.856 106.885 91.6029 107.126 91.1599 107.126H87.8567C87.4264 107.126 87.1733 106.885 87.1733 106.441Z" fill="#22543D"/>
<path d="M100.652 114.746H102.917V106.048C102.917 104.603 103.689 103.703 104.917 103.703C106.144 103.703 106.929 104.603 106.929 106.036V106.492H109.144V105.769C109.144 103.259 107.752 101.775 105.676 101.775C104.474 101.775 103.525 102.257 102.917 103.094V102.004H100.652V114.746Z" fill="#22543D"/>
<path d="M115.016 115C117.737 115 119.56 113.377 119.56 110.879V110.131H117.345V110.562C117.345 112.046 116.408 112.984 115.016 112.984C113.599 112.984 112.662 112.046 112.662 110.562V109.535C112.662 109.091 112.915 108.838 113.346 108.838H119.56V106.086C119.56 103.31 117.737 101.649 115.016 101.649C112.232 101.649 110.346 103.31 110.346 105.782V110.879C110.346 113.377 112.232 115 115.016 115ZM112.662 106.441V106.086C112.662 104.641 113.599 103.665 115.016 103.665C116.408 103.665 117.345 104.641 117.345 106.086V106.441C117.345 106.885 117.092 107.126 116.649 107.126H113.346C112.915 107.126 112.662 106.885 112.662 106.441Z" fill="#22543D"/>
<path d="M125.951 114.975C128.608 114.975 130.456 113.428 130.456 111.057C130.456 108.927 128.988 107.278 126.558 107.202L125.533 107.177C124.242 107.151 123.571 106.467 123.571 105.49C123.571 104.375 124.483 103.55 125.774 103.55C127.178 103.55 128.102 104.514 128.102 105.909V106.505H130.406V105.909C130.406 103.398 128.558 101.661 125.761 101.661C123.103 101.661 121.281 103.259 121.281 105.617C121.281 107.697 122.711 109.066 124.989 109.142L126.077 109.167C127.406 109.205 128.166 110.004 128.166 111.082C128.166 112.287 127.254 113.085 125.925 113.085C124.508 113.085 123.584 112.134 123.584 110.714V110.118H121.281V110.714C121.281 113.25 123.154 114.975 125.951 114.975Z" fill="#22543D"/>
<path d="M135.468 101.484V98.9605H133.203V101.484C133.203 101.826 133.025 102.004 132.684 102.004H131.418V103.804H132.684C133.025 103.804 133.203 103.982 133.203 104.324V114.746H135.468V104.324C135.468 103.982 135.645 103.804 135.987 103.804H137.961V102.004H135.987C135.645 102.004 135.468 101.826 135.468 101.484Z" fill="#22543D"/>
<path d="M142.416 114.899H142.834C144.061 114.899 144.998 114.467 145.656 113.453V114.746H147.934V105.693C147.934 103.259 146.213 101.674 143.39 101.674C140.632 101.674 138.771 103.373 138.771 105.921V106.492H141.062V105.947C141.062 104.603 141.998 103.665 143.378 103.665C144.732 103.665 145.643 104.565 145.643 105.82V106.112C145.643 106.746 145.188 107.227 144.479 107.227H142.555C140.151 107.227 138.594 108.812 138.594 111.095C138.594 113.402 140.138 114.899 142.416 114.899ZM140.897 110.93C140.897 109.789 141.733 109.003 142.986 109.003H144.656C145.302 109.003 145.719 109.408 145.719 110.03V110.93C145.719 112.147 144.922 112.946 143.694 112.946H142.986C141.733 112.946 140.897 112.147 140.897 110.93Z" fill="#22543D"/>
<path d="M157.084 113.555V114.746H159.349V102.004H157.084V110.676C157.084 112.109 156.173 113.073 154.781 113.073C153.427 113.073 152.515 112.109 152.515 110.676V102.004H150.237V110.993C150.237 113.402 151.807 115 154.059 115C155.376 115 156.426 114.467 157.084 113.555Z" fill="#22543D"/>
<path d="M161.805 114.746H164.07V106.048C164.07 104.603 164.842 103.703 166.07 103.703C167.297 103.703 168.082 104.603 168.082 106.036V106.492H170.297V105.769C170.297 103.259 168.905 101.775 166.829 101.775C165.627 101.775 164.678 102.257 164.07 103.094V102.004H161.805V114.746Z" fill="#22543D"/>
<path d="M175.144 114.899H175.562C176.789 114.899 177.726 114.467 178.384 113.453V114.746H180.662V105.693C180.662 103.259 178.941 101.674 176.118 101.674C173.359 101.674 171.499 103.373 171.499 105.921V106.492H173.79V105.947C173.79 104.603 174.726 103.665 176.106 103.665C177.46 103.665 178.371 104.565 178.371 105.82V106.112C178.371 106.746 177.916 107.227 177.207 107.227H175.283C172.879 107.227 171.322 108.812 171.322 111.095C171.322 113.402 172.866 114.899 175.144 114.899ZM173.625 110.93C173.625 109.789 174.461 109.003 175.713 109.003H177.384C178.029 109.003 178.447 109.408 178.447 110.03V110.93C178.447 112.147 177.65 112.946 176.422 112.946H175.713C174.461 112.946 173.625 112.147 173.625 110.93Z" fill="#22543D"/>
<path d="M185.307 103.195V102.004H183.041V114.746H185.307V106.061C185.307 104.628 186.23 103.677 187.597 103.677C188.964 103.677 189.875 104.628 189.875 106.061V114.746H192.153V105.757C192.153 103.348 190.571 101.75 188.319 101.75C187.002 101.75 185.952 102.282 185.307 103.195Z" fill="#22543D"/>
<path d="M197.507 101.484V98.9605H195.241V101.484C195.241 101.826 195.064 102.004 194.723 102.004H193.457V103.804H194.723C195.064 103.804 195.241 103.982 195.241 104.324V114.746H197.507V104.324C197.507 103.982 197.684 103.804 198.026 103.804H200V102.004H198.026C197.684 102.004 197.507 101.826 197.507 101.484Z" fill="#22543D"/>
<path d="M8.1264 74.3524H17.5423V33.1188C17.5423 31.9016 17.8967 30.2786 19.9216 30.2786C21.6428 30.2786 22.5034 31.9016 23.0603 32.713L50.0931 74.3524H60.9771L34.5011 33.981C34.0455 33.3217 33.7924 32.713 33.7924 32.1551C33.7924 31.0901 34.5518 30.2786 36.3236 30.2786H46.5495C55.8642 30.2786 62.2933 24.0403 62.2933 15.1139C62.2933 6.18758 55.8642 0 46.5495 0H8.1264V74.3524ZM17.5423 18.0556V12.0201C17.5423 9.17994 19.3142 8.01343 22.1997 8.01343H44.7777C49.7894 8.01343 52.8774 10.7015 52.8774 15.1139C52.8774 19.4757 49.7894 22.2652 44.7777 22.2652H22.1997C19.3648 22.2652 17.5423 21.0986 17.5423 18.0556Z" fill="#22543D"/>
<path d="M68.3175 74.3524H77.3791V23.3809H68.3175V74.3524ZM66.9507 10.9043C66.9507 14.2517 69.6843 16.8383 72.9749 16.8383C76.1641 16.8383 78.8472 14.2517 78.8472 10.9043C78.8472 7.6584 76.1641 5.07179 72.9749 5.07179C69.6843 5.07179 66.9507 7.6584 66.9507 10.9043Z" fill="#22543D"/>
<path d="M104.209 75.2653C114.84 75.2653 122.231 69.0778 122.231 59.5935C122.231 51.0729 116.359 44.4796 106.639 44.1753L102.539 44.0738C97.3753 43.9724 94.6922 41.2336 94.6922 37.3284C94.6922 32.8652 98.3371 29.5685 103.501 29.5685C109.12 29.5685 112.815 33.4231 112.815 39.0021V41.3858H122.029V39.0021C122.029 28.9599 114.638 22.0116 103.45 22.0116C92.8192 22.0116 85.5294 28.402 85.5294 37.8355C85.5294 46.1533 91.2499 51.6308 100.362 51.9351L104.716 52.0366C110.031 52.1887 113.069 55.3839 113.069 59.695C113.069 64.5132 109.424 67.7084 104.108 67.7084C98.4384 67.7084 94.7429 63.9045 94.7429 58.2241V55.8404H85.5294V58.2241C85.5294 68.3677 93.0217 75.2653 104.209 75.2653Z" fill="#22543D"/>
<path d="M142.278 21.3015V11.2087H133.217V21.3015C133.217 22.6709 132.508 23.3809 131.141 23.3809H126.079V30.5829H131.141C132.508 30.5829 133.217 31.2929 133.217 32.6623V74.3524H142.278V32.6623C142.278 31.2929 142.987 30.5829 144.354 30.5829H152.251V23.3809H144.354C142.987 23.3809 142.278 22.6709 142.278 21.3015Z" fill="#22543D"/>
<path d="M174.171 75.3668C185.257 75.3668 192.648 68.8749 192.648 58.9342V38.4949C192.648 28.6556 185.257 22.0116 174.171 22.0116C162.983 22.0116 155.491 28.6556 155.491 38.4949V58.9342C155.491 68.8749 162.983 75.3668 174.171 75.3668ZM160.654 0L170.374 17.7513H178.119L169.817 0H160.654ZM164.704 57.6662V39.7628C164.704 33.8796 168.501 30.025 174.171 30.025C179.739 30.025 183.435 33.8796 183.435 39.7628V57.6662C183.435 63.5495 179.739 67.3026 174.171 67.3026C168.501 67.3026 164.704 63.5495 164.704 57.6662Z" fill="#22543D"/>
</svg>
