<svg width="129" height="83" viewBox="0 0 129 83" fill="none" xmlns="http://www.w3.org/2000/svg">
<path d="M0 52H6.53906V23.418C6.53906 22.5742 6.78516 21.4492 8.19141 21.4492C9.38672 21.4492 9.98438 22.5742 10.3711 23.1367L29.1445 52H36.7031L18.3164 24.0156C18 23.5586 17.8242 23.1367 17.8242 22.75C17.8242 22.0117 18.3516 21.4492 19.582 21.4492H26.6836C33.1523 21.4492 37.6172 17.125 37.6172 10.9375C37.6172 4.75 33.1523 0.460938 26.6836 0.460938H0V52ZM6.53906 12.9766V8.79297C6.53906 6.82422 7.76953 6.01562 9.77344 6.01562H25.4531C28.9336 6.01562 31.0781 7.87891 31.0781 10.9375C31.0781 13.9609 28.9336 15.8945 25.4531 15.8945H9.77344C7.80469 15.8945 6.53906 15.0859 6.53906 12.9766Z" fill="#285E61"/>
<path d="M41.8008 52H48.0938V16.668H41.8008V52ZM40.8516 8.01953C40.8516 10.3398 42.75 12.1328 45.0352 12.1328C47.25 12.1328 49.1133 10.3398 49.1133 8.01953C49.1133 5.76953 47.25 3.97656 45.0352 3.97656C42.75 3.97656 40.8516 5.76953 40.8516 8.01953Z" fill="#285E61"/>
<path d="M66.7266 52.6328C74.1094 52.6328 79.2422 48.3438 79.2422 41.7695C79.2422 35.8633 75.1641 31.293 68.4141 31.082L65.5664 31.0117C61.9805 30.9414 60.1172 29.043 60.1172 26.3359C60.1172 23.2422 62.6484 20.957 66.2344 20.957C70.1367 20.957 72.7031 23.6289 72.7031 27.4961V29.1484H79.1016V27.4961C79.1016 20.5352 73.9688 15.7188 66.1992 15.7188C58.8164 15.7188 53.7539 20.1484 53.7539 26.6875C53.7539 32.4531 57.7266 36.25 64.0547 36.4609L67.0781 36.5312C70.7695 36.6367 72.8789 38.8516 72.8789 41.8398C72.8789 45.1797 70.3477 47.3945 66.6562 47.3945C62.7188 47.3945 60.1523 44.7578 60.1523 40.8203V39.168H53.7539V40.8203C53.7539 47.8516 58.957 52.6328 66.7266 52.6328Z" fill="#285E61"/>
<path d="M93.1641 15.2266V8.23047H86.8711V15.2266C86.8711 16.1758 86.3789 16.668 85.4297 16.668H81.9141V21.6602H85.4297C86.3789 21.6602 86.8711 22.1523 86.8711 23.1016V52H93.1641V23.1016C93.1641 22.1523 93.6562 21.6602 94.6055 21.6602H100.09V16.668H94.6055C93.6562 16.668 93.1641 16.1758 93.1641 15.2266Z" fill="#285E61"/>
<path d="M115.312 52.7031C123.012 52.7031 128.145 48.2031 128.145 41.3125V27.1445C128.145 20.3242 123.012 15.7188 115.312 15.7188C107.543 15.7188 102.34 20.3242 102.34 27.1445V41.3125C102.34 48.2031 107.543 52.7031 115.312 52.7031ZM105.926 0.460938L112.676 12.7656H118.055L112.289 0.460938H105.926ZM108.738 40.4336V28.0234C108.738 23.9453 111.375 21.2734 115.312 21.2734C119.18 21.2734 121.746 23.9453 121.746 28.0234V40.4336C121.746 44.5117 119.18 47.1133 115.312 47.1133C111.375 47.1133 108.738 44.5117 108.738 40.4336Z" fill="#285E61"/>
<path d="M3.94678 82H14.665L16.7612 68.7505H14.3091L12.7798 79.416C12.7139 79.8247 12.5952 80.1938 12.1074 80.1938H11.0396C10.6968 80.1938 10.4199 79.9697 10.4199 79.4292L10.4858 68.7505H8.13916L8.21826 79.4292C8.21826 79.9697 7.94141 80.1938 7.57227 80.1938H6.46484C6.00342 80.1938 5.88477 79.8247 5.81885 79.416L4.30273 68.7505H1.8374L3.94678 82Z" fill="#285E61"/>
<path d="M23.063 82.2637C25.9502 82.2637 27.875 80.5762 27.875 77.9922V72.6792C27.875 70.1216 25.9502 68.3945 23.063 68.3945C20.1494 68.3945 18.1982 70.1216 18.1982 72.6792V77.9922C18.1982 80.5762 20.1494 82.2637 23.063 82.2637ZM20.5977 77.6626V73.0088C20.5977 71.4795 21.5864 70.4775 23.063 70.4775C24.5132 70.4775 25.4756 71.4795 25.4756 73.0088V77.6626C25.4756 79.1919 24.5132 80.1675 23.063 80.1675C21.5864 80.1675 20.5977 79.1919 20.5977 77.6626Z" fill="#285E61"/>
<path d="M30.1162 82H32.4761V72.9561C32.4761 71.4531 33.2803 70.5171 34.5591 70.5171C35.8379 70.5171 36.6553 71.4531 36.6553 72.9429V73.4175H38.9624V72.666C38.9624 70.0557 37.5122 68.5132 35.3501 68.5132C34.0977 68.5132 33.1089 69.0142 32.4761 69.8843V68.7505H30.1162V82Z" fill="#285E61"/>
<path d="M42.8911 62.6729H40.5312V82H42.8911V62.6729Z" fill="#285E61"/>
<path d="M52.4097 80.7344V82H54.7695V62.6729H52.4097V69.9766C51.7241 69.0142 50.6035 68.4604 49.1929 68.4604C46.8066 68.4604 45.1455 70.1216 45.1455 72.6528V78.0713C45.1455 80.5894 46.8066 82.2637 49.1929 82.2637C50.6035 82.2637 51.7241 81.6968 52.4097 80.7344ZM47.5186 77.7417V72.9692C47.5186 71.4663 48.4941 70.4644 49.9443 70.4644C51.4209 70.4644 52.4097 71.4663 52.4097 72.9692V77.7417C52.4097 79.2578 51.4209 80.2598 49.9443 80.2598C48.4941 80.2598 47.5186 79.2578 47.5186 77.7417Z" fill="#285E61"/>
<path d="M66.4897 82.2505C69.3242 82.2505 71.2227 80.5498 71.2227 77.9922V76.4893H68.9023V77.6626C68.9023 79.1523 67.9399 80.1543 66.4897 80.1543C65.0132 80.1543 64.0244 79.1523 64.0244 77.6626V73.0088C64.0244 71.4795 65.0132 70.4775 66.4897 70.4775C67.9399 70.4775 68.9023 71.4795 68.9023 73.0088V74.1426H71.2227V73.0088C71.2227 70.1084 69.3242 68.3945 66.4897 68.3945C63.5762 68.3945 61.625 70.1084 61.625 72.6792V77.9922C61.625 80.5498 63.5762 82.2505 66.4897 82.2505Z" fill="#285E61"/>
<path d="M80.5171 80.7607V82H82.877V68.7505H80.5171V77.7681C80.5171 79.2578 79.5679 80.2598 78.1177 80.2598C76.707 80.2598 75.7578 79.2578 75.7578 77.7681V68.7505H73.3848V78.0977C73.3848 80.6025 75.0195 82.2637 77.3662 82.2637C78.7373 82.2637 79.8315 81.71 80.5171 80.7607Z" fill="#285E61"/>
<path d="M85.4346 82H87.7944V68.7505H85.4346V82ZM85.0786 65.5073C85.0786 66.3774 85.7905 67.0498 86.6475 67.0498C87.478 67.0498 88.1768 66.3774 88.1768 65.5073C88.1768 64.6636 87.478 63.9912 86.6475 63.9912C85.7905 63.9912 85.0786 64.6636 85.0786 65.5073Z" fill="#285E61"/>
<path d="M94.7817 82.2373C97.5503 82.2373 99.4751 80.6289 99.4751 78.1636C99.4751 75.9487 97.9458 74.2349 95.4146 74.1558L94.3467 74.1294C93.002 74.103 92.3032 73.3911 92.3032 72.376C92.3032 71.2158 93.2524 70.3589 94.5972 70.3589C96.0605 70.3589 97.0229 71.3608 97.0229 72.811V73.4307H99.4224V72.811C99.4224 70.2007 97.4976 68.3945 94.584 68.3945C91.8154 68.3945 89.917 70.0557 89.917 72.5078C89.917 74.6699 91.4067 76.0938 93.7798 76.1729L94.9136 76.1992C96.2979 76.2388 97.0889 77.0693 97.0889 78.1899C97.0889 79.4424 96.1396 80.2729 94.7554 80.2729C93.2788 80.2729 92.3164 79.2842 92.3164 77.8076V77.188H89.917V77.8076C89.917 80.4443 91.8682 82.2373 94.7817 82.2373Z" fill="#285E61"/>
<path d="M101.545 82H103.905V68.7505H101.545V82ZM101.189 65.5073C101.189 66.3774 101.901 67.0498 102.758 67.0498C103.588 67.0498 104.287 66.3774 104.287 65.5073C104.287 64.6636 103.588 63.9912 102.758 63.9912C101.901 63.9912 101.189 64.6636 101.189 65.5073Z" fill="#285E61"/>
<path d="M108.835 69.9897V68.7505H106.476V82H108.835V72.9692C108.835 71.4795 109.798 70.4907 111.222 70.4907C112.646 70.4907 113.595 71.4795 113.595 72.9692V82H115.968V72.6528C115.968 70.1479 114.32 68.4868 111.973 68.4868C110.602 68.4868 109.508 69.0405 108.835 69.9897Z" fill="#285E61"/>
<path d="M122.995 82.2637C125.829 82.2637 127.728 80.5762 127.728 77.979V77.2012H125.42V77.6494C125.42 79.1919 124.445 80.1675 122.995 80.1675C121.518 80.1675 120.542 79.1919 120.542 77.6494V76.5815C120.542 76.1201 120.806 75.8564 121.254 75.8564H127.728V72.9956C127.728 70.1084 125.829 68.3813 122.995 68.3813C120.094 68.3813 118.13 70.1084 118.13 72.6792V77.979C118.13 80.5762 120.094 82.2637 122.995 82.2637ZM120.542 73.3647V72.9956C120.542 71.4927 121.518 70.4775 122.995 70.4775C124.445 70.4775 125.42 71.4927 125.42 72.9956V73.3647C125.42 73.8262 125.157 74.0767 124.695 74.0767H121.254C120.806 74.0767 120.542 73.8262 120.542 73.3647Z" fill="#285E61"/>
</svg>
