<svg width="185" height="76" viewBox="0 0 185 76" fill="none" xmlns="http://www.w3.org/2000/svg">
<path d="M0.126404 74.3524H9.54234V33.1188C9.54234 31.9016 9.8967 30.2786 11.9216 30.2786C13.6428 30.2786 14.5034 31.9016 15.0603 32.713L42.0931 74.3524H52.9771L26.5011 33.981C26.0455 33.3217 25.7924 32.713 25.7924 32.1551C25.7924 31.0901 26.5518 30.2786 28.3236 30.2786H38.5495C47.8642 30.2786 54.2933 24.0403 54.2933 15.1139C54.2933 6.18758 47.8642 0 38.5495 0H0.126404V74.3524ZM9.54234 18.0556V12.0201C9.54234 9.17994 11.3142 8.01343 14.1997 8.01343H36.7777C41.7894 8.01343 44.8774 10.7015 44.8774 15.1139C44.8774 19.4757 41.7894 22.2652 36.7777 22.2652H14.1997C11.3648 22.2652 9.54234 21.0986 9.54234 18.0556Z" fill="#22543D"/>
<path d="M60.3175 74.3524H69.3791V23.3809H60.3175V74.3524ZM58.9507 10.9043C58.9507 14.2517 61.6843 16.8383 64.9749 16.8383C68.1641 16.8383 70.8472 14.2517 70.8472 10.9043C70.8472 7.6584 68.1641 5.07179 64.9749 5.07179C61.6843 5.07179 58.9507 7.6584 58.9507 10.9043Z" fill="#22543D"/>
<path d="M96.2094 75.2653C106.84 75.2653 114.231 69.0778 114.231 59.5935C114.231 51.0729 108.359 44.4796 98.6393 44.1753L94.5389 44.0738C89.3753 43.9724 86.6922 41.2336 86.6922 37.3284C86.6922 32.8652 90.3371 29.5685 95.5007 29.5685C101.12 29.5685 104.815 33.4231 104.815 39.0021V41.3858H114.029V39.0021C114.029 28.9599 106.638 22.0116 95.4501 22.0116C84.8192 22.0116 77.5294 28.402 77.5294 37.8355C77.5294 46.1533 83.2499 51.6308 92.3621 51.9351L96.7157 52.0366C102.031 52.1887 105.069 55.3839 105.069 59.695C105.069 64.5132 101.424 67.7084 96.1082 67.7084C90.4384 67.7084 86.7429 63.9045 86.7429 58.2241V55.8404H77.5294V58.2241C77.5294 68.3677 85.0217 75.2653 96.2094 75.2653Z" fill="#22543D"/>
<path d="M134.278 21.3015V11.2087H125.217V21.3015C125.217 22.6709 124.508 23.3809 123.141 23.3809H118.079V30.5829H123.141C124.508 30.5829 125.217 31.2929 125.217 32.6623V74.3524H134.278V32.6623C134.278 31.2929 134.987 30.5829 136.354 30.5829H144.251V23.3809H136.354C134.987 23.3809 134.278 22.6709 134.278 21.3015Z" fill="#22543D"/>
<path d="M166.171 75.3668C177.257 75.3668 184.648 68.8749 184.648 58.9342V38.4949C184.648 28.6556 177.257 22.0116 166.171 22.0116C154.983 22.0116 147.491 28.6556 147.491 38.4949V58.9342C147.491 68.8749 154.983 75.3668 166.171 75.3668ZM152.654 0L162.374 17.7513H170.119L161.817 0H152.654ZM156.704 57.6662V39.7628C156.704 33.8796 160.501 30.025 166.171 30.025C171.739 30.025 175.435 33.8796 175.435 39.7628V57.6662C175.435 63.5495 171.739 67.3026 166.171 67.3026C160.501 67.3026 156.704 63.5495 156.704 57.6662Z" fill="#22543D"/>
</svg>
