<svg width="100" height="137" viewBox="0 0 100 137" fill="none" xmlns="http://www.w3.org/2000/svg">
<path d="M0 137H17.3832V61.0239C17.3832 58.781 18.0374 55.7906 21.7757 55.7906C24.9533 55.7906 26.5421 58.781 27.5701 60.2763L77.4766 137H97.5701L48.6916 62.6125C47.8505 61.3977 47.3832 60.2763 47.3832 59.2483C47.3832 57.2858 48.785 55.7906 52.0561 55.7906H70.9346C88.1308 55.7906 100 44.296 100 27.8486C100 11.4011 88.1308 0 70.9346 0H0V137ZM17.3832 33.2688V22.148C17.3832 16.9147 20.6542 14.7653 25.9813 14.7653H67.6636C76.9159 14.7653 82.6168 19.7183 82.6168 27.8486C82.6168 35.8854 76.9159 41.0252 67.6636 41.0252H25.9813C20.7477 41.0252 17.3832 38.8759 17.3832 33.2688Z" fill="#22543D"/>
</svg>
