<svg width="300" height="300" viewBox="0 0 300 300" fill="none" xmlns="http://www.w3.org/2000/svg">
<rect width="300" height="300" rx="110" fill="#ECC94B"/>
<path d="M92 229H112.164V140.823C112.164 138.22 112.923 134.75 117.26 134.75C120.946 134.75 122.789 138.22 123.981 139.956L181.873 229H205.181L148.482 142.667C147.507 141.257 146.964 139.956 146.964 138.763C146.964 136.485 148.591 134.75 152.385 134.75H174.284C194.232 134.75 208 121.409 208 102.321C208 83.2319 194.232 70 174.284 70H92V229ZM112.164 108.611V95.7046C112.164 89.631 115.959 87.1364 122.138 87.1364H170.49C181.222 87.1364 187.836 92.8847 187.836 102.321C187.836 111.648 181.222 117.613 170.49 117.613H122.138C116.067 117.613 112.164 115.119 112.164 108.611Z" fill="#22543D"/>
</svg>
