<svg width="335" height="356" viewBox="0 0 335 356" fill="none" xmlns="http://www.w3.org/2000/svg">
<path d="M47 343H89.0673V159.437C89.0673 154.018 90.6505 146.793 99.6972 146.793C107.387 146.793 111.232 154.018 113.72 157.631L234.493 343H283.12L164.834 163.276C162.798 160.34 161.667 157.631 161.667 155.147C161.667 150.406 165.06 146.793 172.976 146.793H218.662C260.277 146.793 289 119.022 289 79.2838C289 39.5457 260.277 12 218.662 12H47V343ZM89.0673 92.3793V65.5109C89.0673 52.867 96.9832 47.6739 109.875 47.6739H210.746C233.136 47.6739 246.933 59.6405 246.933 79.2838C246.933 98.7012 233.136 111.119 210.746 111.119H109.875C97.2093 111.119 89.0673 105.926 89.0673 92.3793Z" fill="#22543D"/>
</svg>
